#!OML:ASF X:\für Bonn\!DataBase\2005_08_11_Bastian_Final\c3d\Bastian.ASF
:FULLY-SPECIFIED
:DEGREES
91
root 0.438609 17.3199 1.11161 154.718 -4.13659 -172.784
lowerback 25.9959 -4.70077 8.2396
upperback 14.0018 -9.37288 5.52118
thorax 1.545 -6.62753 3.56516
lowerneck -9.93633 -5.63873 -7.40836
upperneck -10.0138 -5.721 6.34781
head -1.06882 -2.26445 3.19948
rclavicle 1.19271e-015 0
rhumerus -40.1301 25.9158 -92.2267
rradius 42.1873
rwrist -21.7406
rhand -37.4612 17.6028
rfingers 7.12502
rthumb -10.5196 -12.114
lclavicle 1.19271e-015 0
lhumerus 23.7127 -32.4523 82.3293
lradius 94.7524
lwrist -16.1392
lhand -52.3258 -9.50628
lfingers 7.12502
lthumb -24.8197 18.9029
rfemur -29.4432 2.55307 27.1749
rtibia 92.0546
rfoot 10.0346 -14.7717
rtoes -14.7345
lfemur 16.8711 -2.07636 -14.4478
ltibia 24.6038
lfoot -11.1619 3.09742
ltoes 6.14988
92
root 0.461642 17.3292 1.0617 155.492 -4.15648 -172.837
lowerback 24.6973 -4.67997 8.30868
upperback 13.582 -9.11006 5.50083
thorax 1.62075 -6.34462 3.30715
lowerneck -9.81655 -5.66321 -7.42625
upperneck -9.50968 -5.84158 6.08729
head -0.924094 -2.35367 3.10266
rclavicle -6.44062e-014 6.83819e-014
rhumerus -40.1564 25.3926 -92.0723
rradius 42.4263
rwrist -21.6077
rhand -37.4123 17.9179
rfingers 7.12502
rthumb -10.4724 -11.8013
lclavicle -6.44062e-014 6.83819e-014
lhumerus 22.1898 -33.2418 82.6655
lradius 92.1472
lwrist -16.2825
lhand -51.9962 -8.6332
lfingers 7.12502
lthumb -24.5039 19.8191
rfemur -27.2817 2.97834 27.0647
rtibia 89.2148
rfoot 10.0445 -15.3368
rtoes -13.6608
lfemur 16.24 -2.21687 -14.4559
ltibia 24.6199
lfoot -11.3687 3.14229
ltoes 6.64877
93
root 0.4856 17.3379 1.00935 156.321 -4.19401 -172.891
lowerback 23.3275 -4.66169 8.35927
upperback 13.1501 -8.87036 5.47904
thorax 1.73495 -6.07614 3.0594
lowerneck -9.68742 -5.66996 -7.43482
upperneck -9.01432 -5.93519 5.83568
head -0.786734 -2.42948 3.00935
rclavicle -6.36111e-015 -7.95139e-015
rhumerus -40.1359 24.8666 -91.9224
rradius 42.7172
rwrist -21.376
rhand -37.3701 18.106
rfingers 7.12502
rthumb -10.4317 -11.6152
lclavicle -6.36111e-015 -7.95139e-015
lhumerus 20.7592 -34.0252 82.961
lradius 89.5042
lwrist -16.296
lhand -51.6363 -8.12883
lfingers 7.12502
lthumb -24.1588 20.3698
rfemur -25.2886 3.36204 26.9852
rtibia 86.4073
rfoot 9.88078 -15.7918
rtoes -13.4875
lfemur 15.53 -2.42286 -14.4859
ltibia 24.6844
lfoot -11.6269 3.20984
ltoes 7.47382
94
root 0.510248 17.3433 0.955504 157.16 -4.24068 -172.949
lowerback 21.9306 -4.63233 8.43362
upperback 12.7086 -8.62334 5.444
thorax 1.86423 -5.8051 2.78626
lowerneck -9.51324 -5.68852 -7.44855
upperneck -8.53586 -6.04406 5.59674
head -0.661742 -2.51327 2.92276
rclavicle -3.97569e-015 -9.70069e-014
rhumerus -40.058 24.2926 -91.7798
rradius 43.0284
rwrist -21.119
rhand -37.305 18.1344
rfingers 7.12502
rthumb -10.3689 -11.5899
lclavicle -3.97569e-015 -9.70069e-014
lhumerus 19.405 -34.9128 83.2355
lradius 86.7878
lwrist -16.2616
lhand -51.2579 -7.84368
lfingers 7.12502
lthumb -23.796 20.7027
rfemur -23.4187 3.72171 26.9295
rtibia 83.6432
rfoot 9.49953 -16.1904
rtoes -14.5329
lfemur 14.7698 -2.58669 -14.5006
ltibia 24.8258
lfoot -11.9154 3.25201
ltoes 7.92432
95
root 0.536369 17.3465 0.901239 158.029 -4.30189 -173.014
lowerback 20.5094 -4.60735 8.51256
upperback 12.2651 -8.39781 5.38598
thorax 2.01654 -5.548 2.49401
lowerneck -9.4053 -5.71806 -7.45676
upperneck -8.05166 -6.15532 5.39381
head -0.52327 -2.59588 2.84601
rclavicle -1.12512e-013 1.19271e-013
rhumerus -39.9418 23.8064 -91.7172
rradius 43.3897
rwrist -20.9941
rhand -37.2309 18.137
rfingers 7.12502
rthumb -10.2974 -11.5909
lclavicle -1.12512e-013 1.19271e-013
lhumerus 18.1897 -35.9129 83.2558
lradius 84.1106
lwrist -15.9137
lhand -50.8921 -7.90013
lfingers 7.12502
lthumb -23.4451 20.6915
rfemur -21.7044 4.04406 26.8812
rtibia 80.9217
rfoot 8.95986 -16.5681
rtoes -15.772
lfemur 13.913 -2.74436 -14.5107
ltibia 25.0829
lfoot -12.2243 3.26753
ltoes 8.38467
96
root 0.563702 17.3448 0.847512 158.905 -4.36466 -173.072
lowerback 19.1235 -4.57992 8.61355
upperback 11.7742 -8.16121 5.327
thorax 2.11316 -5.28783 2.2029
lowerneck -9.19556 -5.74236 -7.50624
upperneck -7.58446 -6.26354 5.22986
head -0.405428 -2.67855 2.79343
rclavicle -5.00937e-014 1.19271e-013
rhumerus -39.9228 23.3793 -91.7169
rradius 43.8411
rwrist -20.926
rhand -37.1762 18.0744
rfingers 7.12502
rthumb -10.2446 -11.6561
lclavicle -5.00937e-014 1.19271e-013
lhumerus 16.9971 -37.0416 83.2084
lradius 81.4129
lwrist -15.4195
lhand -50.5121 -8.17461
lfingers 7.12502
lthumb -23.0806 20.4631
rfemur -20.0964 4.34439 26.8607
rtibia 78.2304
rfoot 8.10183 -16.8327
rtoes -16.5308
lfemur 12.9807 -2.8481 -14.4804
ltibia 25.4527
lfoot -12.5719 3.22043
ltoes 8.61082
97
root 0.591339 17.34 0.794898 159.784 -4.43055 -173.151
lowerback 17.8204 -4.55268 8.72769
upperback 11.2059 -7.89991 5.24753
thorax 2.09341 -5.0162 1.90324
lowerneck -8.78522 -5.76511 -7.5978
upperneck -7.17886 -6.38255 5.10589
head -0.338034 -2.76933 2.76802
rclavicle -1.13307e-013 8.74653e-014
rhumerus -39.9998 22.9706 -91.7965
rradius 44.3464
rwrist -20.9882
rhand -37.1136 18.06
rfingers 7.12502
rthumb -10.1842 -11.6735
lclavicle -1.13307e-013 8.74653e-014
lhumerus 15.6486 -38.319 83.2321
lradius 78.775
lwrist -14.8005
lhand -50.0486 -8.58037
lfingers 7.12502
lthumb -22.6357 20.1123
rfemur -18.5945 4.46284 26.7797
rtibia 75.5428
rfoot 6.85752 -16.6299
rtoes -17.4392
lfemur 11.997 -2.88194 -14.4434
ltibia 25.9108
lfoot -12.9351 3.12692
ltoes 8.59982
98
root 0.620744 17.3381 0.743478 160.635 -4.48925 -173.213
lowerback 16.5919 -4.50871 8.84158
upperback 10.6167 -7.62977 5.1879
thorax 2.03339 -4.75333 1.63956
lowerneck -8.30426 -5.78547 -7.74396
upperneck -6.7876 -6.49867 5.01235
head -0.284655 -2.85828 2.76538
rclavicle -2.26615e-014 -3.65764e-014
rhumerus -40.1158 22.6204 -91.894
rradius 44.9189
rwrist -21.1401
rhand -37.0895 18.0917
rfingers 7.12502
rthumb -10.1609 -11.6429
lclavicle -2.26615e-014 -3.65764e-014
lhumerus 14.2624 -39.6792 83.359
lradius 76.1218
lwrist -14.2281
lhand -49.5086 -8.93821
lfingers 7.12502
lthumb -22.1174 19.8168
rfemur -17.1603 4.55011 26.719
rtibia 72.8118
rfoot 5.46501 -16.3657
rtoes -18.2881
lfemur 11.0051 -2.93801 -14.3867
ltibia 26.4424
lfoot -13.3362 3.04955
ltoes 8.57316
99
root 0.65112 17.3398 0.694965 161.477 -4.56671 -173.305
lowerback 15.4326 -4.46381 8.93505
upperback 10.0099 -7.36502 5.09772
thorax 1.93047 -4.50165 1.37054
lowerneck -7.71692 -5.78346 -7.85763
upperneck -6.45434 -6.5936 4.94056
head -0.269925 -2.93746 2.76916
rclavicle -7.15625e-014 -1.59028e-015
rhumerus -40.198 22.2513 -92.0618
rradius 45.4654
rwrist -21.2787
rhand -37.0852 18.233
rfingers 7.12502
rthumb -10.1568 -11.5018
lclavicle -7.15625e-014 -1.59028e-015
lhumerus 12.7345 -41.0628 83.6069
lradius 73.5148
lwrist -13.7773
lhand -48.8049 -9.11559
lfingers 7.12502
lthumb -21.4416 19.7178
rfemur -15.7779 4.61286 26.629
rtibia 70.0528
rfoot 3.82284 -16.1786
rtoes -18.6998
lfemur 10.0015 -2.94045 -14.338
ltibia 26.9904
lfoot -13.7136 2.92338
ltoes 8.43581
100
root 0.682299 17.3415 0.649797 162.289 -4.61322 -173.37
lowerback 14.3328 -4.39443 9.07195
upperback 9.42898 -7.09123 5.01069
thorax 1.83757 -4.2579 1.08946
lowerneck -7.21496 -5.78452 -7.94664
upperneck -6.08132 -6.68494 4.85908
head -0.229829 -3.01329 2.76271
rclavicle 8.54774e-015 -3.33958e-014
rhumerus -40.209 21.8925 -92.2331
rradius 46.0251
rwrist -21.419
rhand -37.099 18.4916
rfingers 7.12502
rthumb -10.1701 -11.2426
lclavicle 8.54774e-015 -3.33958e-014
lhumerus 11.1897 -42.45 83.9579
lradius 70.9403
lwrist -13.5257
lhand -47.9858 -9.04911
lfingers 7.12502
lthumb -20.6547 19.8719
rfemur -14.4233 4.60865 26.584
rtibia 67.2867
rfoot 1.93534 -16.0813
rtoes -18.5694
lfemur 9.02721 -2.91157 -14.2467
ltibia 27.5147
lfoot -14.0445 2.81876
ltoes 8.16394
101
root 0.715202 17.3405 0.609477 163.048 -4.6866 -173.475
lowerback 13.3227 -4.30962 9.14077
upperback 8.88668 -6.82754 4.91728
thorax 1.75695 -4.03498 0.851149
lowerneck -6.82417 -5.78392 -8.02399
upperneck -5.68627 -6.7601 4.78291
head -0.165311 -3.07781 2.75327
rclavicle -9.54166e-015 7.95139e-015
rhumerus -40.0668 21.5603 -92.3924
rradius 46.5337
rwrist -21.5105
rhand -37.1371 18.7942
rfingers 7.12502
rthumb -10.2069 -10.9382
lclavicle -9.54166e-015 7.95139e-015
lhumerus 9.66656 -43.7782 84.3886
lradius 68.3476
lwrist -13.575
lhand -47.081 -8.58913
lfingers 7.12502
lthumb -19.7852 20.4239
rfemur -13.1164 4.47386 26.5078
rtibia 64.5797
rfoot -0.120746 -16.019
rtoes -17.9095
lfemur 8.09462 -2.87707 -14.1946
ltibia 28.0197
lfoot -14.3373 2.7053
ltoes 8.12732
